<svg width="16.000000" height="16.000000" viewBox="0 0 16 16" fill="none" xmlns="http://www.w3.org/2000/svg" xmlns:xlink="http://www.w3.org/1999/xlink">
	<desc>
			Created with Pixso.
	</desc>
	<defs>
		<clipPath id="clip155_332">
			<rect id="social media / 24 / Outline" rx="0.000000" width="15.000000" height="15.000000" transform="translate(0.500000 0.500000)" fill="white" fill-opacity="0"/>
		</clipPath>
	</defs>
	<rect id="social media / 24 / Outline" rx="0.000000" width="15.000000" height="15.000000" transform="translate(0.500000 0.500000)" fill="#FFFFFF" fill-opacity="0"/>
	<g clip-path="url(#clip155_332)">
		<path id="Vector" d="M12.55 6.29C12.49 6.2 12.4 6.12 12.31 6.07C12.21 6.02 12.1 6 11.99 6L9.99 6L9.99 4.66L11.46 4.66C11.64 4.66 11.81 4.59 11.93 4.47C12.06 4.34 12.13 4.17 12.13 4L12.13 1.33C12.13 1.15 12.06 0.98 11.93 0.86C11.81 0.73 11.64 0.66 11.46 0.66L9.33 0.66C8.3 0.66 7.32 1.07 6.59 1.79C5.87 2.52 5.46 3.5 5.46 4.53L5.46 6L3.99 6C3.82 6 3.65 6.07 3.52 6.19C3.4 6.32 3.33 6.49 3.33 6.66L3.33 9.33C3.33 9.51 3.4 9.67 3.52 9.8C3.65 9.92 3.82 10 3.99 10L5.46 10L5.46 14.66C5.46 14.84 5.53 15.01 5.66 15.13C5.78 15.26 5.95 15.33 6.13 15.33L9.33 15.33C9.51 15.33 9.67 15.26 9.8 15.13C9.92 15.01 9.99 14.84 9.99 14.66L9.99 10L10.93 10C11.06 10 11.19 9.96 11.3 9.88C11.41 9.81 11.5 9.7 11.55 9.58L12.61 6.91C12.66 6.81 12.67 6.7 12.66 6.59C12.65 6.48 12.61 6.38 12.55 6.29ZM10.47 8.66L9.33 8.66C9.15 8.66 8.98 8.73 8.86 8.86C8.73 8.98 8.66 9.15 8.66 9.33L8.66 14L6.79 14L6.79 9.33C6.79 9.15 6.72 8.98 6.6 8.86C6.47 8.73 6.31 8.66 6.13 8.66L4.66 8.66L4.66 7.33L6.13 7.33C6.31 7.33 6.47 7.26 6.6 7.13C6.72 7.01 6.79 6.84 6.79 6.66L6.79 4.53C6.8 3.86 7.06 3.21 7.54 2.74C8.01 2.26 8.66 2 9.33 2L10.79 2L10.79 3.33L10.26 3.33C10.04 3.3 9.81 3.31 9.59 3.37C9.37 3.43 9.16 3.53 8.98 3.68C8.87 3.79 8.79 3.92 8.73 4.07C8.68 4.22 8.65 4.37 8.66 4.53L8.66 6.66C8.66 6.84 8.73 7.01 8.86 7.13C8.98 7.26 9.15 7.33 9.33 7.33L11.01 7.33L10.47 8.66Z" fill="#FFFFFF" fill-opacity="1.000000" fill-rule="nonzero"/>
	</g>
</svg>
