<svg width="16.000000" height="16.000000" viewBox="0 0 16 16" fill="none" xmlns="http://www.w3.org/2000/svg" xmlns:xlink="http://www.w3.org/1999/xlink">
	<desc>
			Created with Pixso.
	</desc>
	<defs>
		<clipPath id="clip155_336">
			<rect id="instagram / 24 / Outline" rx="0.000000" width="15.000000" height="15.000000" transform="translate(0.500000 0.500000)" fill="white" fill-opacity="0"/>
		</clipPath>
	</defs>
	<rect id="instagram / 24 / Outline" rx="0.000000" width="15.000000" height="15.000000" transform="translate(0.500000 0.500000)" fill="#FFFFFF" fill-opacity="0"/>
	<g clip-path="url(#clip155_336)">
		<path id="Vector" d="M11.55 3.63C11.4 3.63 11.24 3.68 11.11 3.77C10.98 3.86 10.88 3.98 10.82 4.13C10.76 4.27 10.74 4.44 10.77 4.59C10.8 4.75 10.88 4.89 10.99 5C11.1 5.11 11.24 5.19 11.4 5.22C11.55 5.25 11.71 5.23 11.86 5.17C12.01 5.11 12.13 5.01 12.22 4.88C12.31 4.75 12.35 4.59 12.35 4.43C12.35 4.22 12.27 4.02 12.12 3.87C11.97 3.72 11.77 3.63 11.55 3.63ZM14.62 5.25C14.61 4.7 14.51 4.15 14.31 3.63C14.15 3.18 13.88 2.78 13.54 2.45C13.21 2.11 12.81 1.84 12.36 1.68C11.84 1.49 11.3 1.38 10.74 1.37C10.03 1.33 9.81 1.33 7.99 1.33C6.18 1.33 5.95 1.33 5.25 1.37C4.69 1.38 4.15 1.49 3.63 1.68C3.18 1.85 2.78 2.11 2.45 2.45C2.11 2.78 1.84 3.18 1.68 3.63C1.49 4.15 1.38 4.69 1.37 5.25C1.33 5.95 1.33 6.18 1.33 8C1.33 9.81 1.33 10.04 1.37 10.74C1.38 11.29 1.49 11.84 1.68 12.36C1.84 12.81 2.11 13.21 2.45 13.54C2.78 13.88 3.18 14.14 3.63 14.31C4.15 14.5 4.69 14.61 5.25 14.62C5.95 14.66 6.18 14.66 7.99 14.66C9.81 14.66 10.03 14.66 10.74 14.62C11.3 14.61 11.84 14.5 12.36 14.31C12.81 14.15 13.21 13.88 13.54 13.54C13.88 13.21 14.15 12.81 14.31 12.36C14.51 11.84 14.61 11.29 14.62 10.74C14.62 10.04 14.66 9.81 14.66 8C14.66 6.18 14.66 5.95 14.62 5.25ZM13.42 10.66C13.42 11.08 13.34 11.5 13.19 11.9C13.09 12.19 12.92 12.45 12.69 12.67C12.48 12.89 12.22 13.06 11.93 13.17C11.53 13.31 11.11 13.39 10.69 13.39C10.02 13.43 9.77 13.43 8.02 13.43C6.27 13.43 6.02 13.43 5.35 13.39C4.92 13.4 4.48 13.33 4.06 13.19C3.79 13.08 3.54 12.91 3.33 12.69C3.11 12.48 2.94 12.22 2.83 11.93C2.67 11.52 2.58 11.1 2.57 10.66C2.57 10 2.53 9.75 2.53 8C2.53 6.24 2.53 6 2.57 5.33C2.57 4.9 2.65 4.47 2.8 4.06C2.92 3.78 3.1 3.53 3.33 3.33C3.53 3.1 3.78 2.92 4.06 2.79C4.47 2.65 4.9 2.57 5.33 2.57C5.99 2.57 6.24 2.53 7.99 2.53C9.75 2.53 9.99 2.53 10.66 2.57C11.08 2.57 11.5 2.65 11.9 2.79C12.2 2.91 12.48 3.09 12.69 3.33C12.91 3.53 13.08 3.78 13.19 4.06C13.34 4.47 13.42 4.9 13.42 5.33C13.45 6 13.46 6.24 13.46 8C13.46 9.75 13.45 10 13.42 10.66ZM7.99 4.58C7.32 4.58 6.66 4.78 6.1 5.15C5.54 5.53 5.1 6.07 4.84 6.69C4.58 7.32 4.52 8 4.65 8.67C4.78 9.33 5.11 9.94 5.59 10.41C6.06 10.89 6.67 11.22 7.34 11.35C8 11.48 8.69 11.41 9.31 11.15C9.94 10.89 10.47 10.46 10.85 9.89C11.22 9.33 11.42 8.67 11.42 8C11.42 7.54 11.33 7.1 11.16 6.68C10.99 6.27 10.74 5.89 10.42 5.57C10.1 5.25 9.72 5 9.31 4.83C8.89 4.66 8.44 4.57 7.99 4.58ZM7.99 10.21C7.56 10.21 7.13 10.08 6.76 9.84C6.4 9.6 6.11 9.25 5.94 8.84C5.78 8.44 5.73 7.99 5.82 7.56C5.9 7.13 6.11 6.74 6.43 6.42C6.74 6.11 7.13 5.9 7.56 5.82C7.99 5.73 8.44 5.78 8.84 5.94C9.25 6.11 9.6 6.4 9.84 6.76C10.08 7.13 10.21 7.56 10.21 8C10.21 8.29 10.16 8.58 10.05 8.84C9.93 9.11 9.77 9.36 9.56 9.56C9.36 9.77 9.11 9.93 8.84 10.05C8.58 10.16 8.29 10.21 7.99 10.21Z" fill="#FFFFFF" fill-opacity="1.000000" fill-rule="nonzero"/>
	</g>
</svg>
