<svg width="16.000000" height="16.000000" viewBox="0 0 16 16" fill="none" xmlns="http://www.w3.org/2000/svg" xmlns:xlink="http://www.w3.org/1999/xlink">
	<desc>
			Created with Pixso.
	</desc>
	<defs>
		<clipPath id="clip155_334">
			<rect id="twitter / 24 / Outline" rx="0.000000" width="15.000000" height="15.000000" transform="translate(0.500000 0.500000)" fill="white" fill-opacity="0"/>
		</clipPath>
	</defs>
	<rect id="twitter / 24 / Outline" rx="0.000000" width="15.000000" height="15.000000" transform="translate(0.500000 0.500000)" fill="#FFFFFF" fill-opacity="0"/>
	<g clip-path="url(#clip155_334)">
		<path id="Vector" d="M15.32 2.63C15.32 2.51 15.29 2.39 15.23 2.29C15.17 2.19 15.09 2.11 14.99 2.05C14.88 1.99 14.77 1.96 14.65 1.96C14.53 1.96 14.42 2 14.32 2.06C13.93 2.29 13.5 2.47 13.07 2.58C12.44 2.05 11.64 1.75 10.82 1.76C9.91 1.76 9.04 2.11 8.39 2.74C7.74 3.37 7.36 4.23 7.33 5.13C5.55 4.85 3.93 3.92 2.79 2.52C2.72 2.43 2.64 2.37 2.54 2.32C2.44 2.28 2.33 2.26 2.22 2.27C2.11 2.28 2.01 2.32 1.92 2.37C1.83 2.43 1.75 2.51 1.7 2.61C1.42 3.08 1.26 3.62 1.24 4.18C1.21 4.73 1.31 5.28 1.54 5.78L1.53 5.79C1.43 5.85 1.35 5.94 1.29 6.04C1.23 6.14 1.2 6.26 1.2 6.38C1.2 6.48 1.21 6.57 1.22 6.67C1.29 7.51 1.66 8.29 2.27 8.88C2.23 8.96 2.2 9.04 2.19 9.13C2.19 9.22 2.2 9.31 2.22 9.39C2.49 10.21 3.05 10.91 3.8 11.34C3.04 11.63 2.22 11.74 1.41 11.64C1.26 11.62 1.1 11.65 0.97 11.73C0.85 11.81 0.75 11.93 0.7 12.07C0.64 12.22 0.64 12.37 0.69 12.51C0.74 12.66 0.83 12.78 0.96 12.86C2.36 13.76 3.98 14.24 5.63 14.24C7.51 14.26 9.35 13.66 10.85 12.53C12.35 11.4 13.44 9.8 13.94 7.99C14.18 7.2 14.3 6.39 14.3 5.56C14.3 5.52 14.3 5.47 14.3 5.43C14.65 5.05 14.92 4.61 15.09 4.13C15.27 3.65 15.35 3.14 15.32 2.63ZM13.12 4.77C13.01 4.9 12.95 5.07 12.96 5.24C12.97 5.35 12.97 5.46 12.97 5.56C12.97 6.26 12.86 6.95 12.67 7.62C12.25 9.16 11.34 10.52 10.06 11.47C8.79 12.43 7.23 12.94 5.63 12.9C5.06 12.9 4.49 12.83 3.93 12.7C4.64 12.47 5.31 12.12 5.9 11.66C6 11.57 6.08 11.46 6.12 11.33C6.16 11.19 6.16 11.05 6.12 10.92C6.07 10.79 5.99 10.68 5.88 10.6C5.77 10.52 5.63 10.47 5.5 10.47C4.94 10.46 4.41 10.24 4.02 9.85C4.12 9.83 4.22 9.8 4.32 9.78C4.46 9.73 4.59 9.65 4.67 9.52C4.76 9.4 4.81 9.26 4.8 9.11C4.79 8.96 4.74 8.81 4.64 8.7C4.54 8.59 4.41 8.51 4.26 8.48C3.94 8.42 3.64 8.28 3.38 8.08C3.12 7.88 2.91 7.62 2.76 7.33C2.88 7.35 3 7.36 3.13 7.36C3.27 7.36 3.41 7.32 3.53 7.24C3.65 7.15 3.74 7.03 3.78 6.9C3.83 6.76 3.82 6.61 3.77 6.47C3.73 6.33 3.64 6.22 3.51 6.14C3.22 5.94 2.98 5.68 2.82 5.37C2.65 5.06 2.56 4.71 2.57 4.36C2.57 4.31 2.57 4.27 2.57 4.22C4.06 5.62 6 6.44 8.04 6.54C8.14 6.55 8.25 6.53 8.34 6.49C8.44 6.45 8.52 6.38 8.59 6.3C8.65 6.23 8.7 6.13 8.72 6.03C8.75 5.93 8.75 5.83 8.72 5.73C8.69 5.57 8.67 5.4 8.67 5.24C8.67 4.67 8.89 4.12 9.3 3.72C9.7 3.32 10.25 3.09 10.82 3.09C11.11 3.09 11.4 3.15 11.67 3.27C11.94 3.38 12.18 3.55 12.38 3.77C12.46 3.85 12.55 3.91 12.66 3.95C12.77 3.98 12.88 3.99 12.99 3.97C13.27 3.91 13.54 3.84 13.8 3.75C13.62 4.12 13.39 4.46 13.12 4.77Z" fill="#FFFFFF" fill-opacity="1.000000" fill-rule="nonzero"/>
	</g>
</svg>
