<svg width="16.000000" height="16.000000" viewBox="0 0 16 16" fill="none" xmlns="http://www.w3.org/2000/svg" xmlns:xlink="http://www.w3.org/1999/xlink">
	<desc>
			Created with Pixso.
	</desc>
	<defs>
		<clipPath id="clip155_330">
			<rect id="social network / 24 / Outline" rx="0.000000" width="15.000000" height="15.000000" transform="translate(0.500000 0.500000)" fill="white" fill-opacity="0"/>
		</clipPath>
	</defs>
	<rect id="social network / 24 / Outline" rx="0.000000" width="15.000000" height="15.000000" transform="translate(0.500000 0.500000)" fill="#FFFFFF" fill-opacity="0"/>
	<g clip-path="url(#clip155_330)">
		<path id="Vector" d="M9.92 6.98L7.92 5.82C7.74 5.72 7.54 5.66 7.34 5.66C7.13 5.66 6.93 5.72 6.75 5.82C6.57 5.92 6.42 6.07 6.32 6.25C6.22 6.43 6.16 6.63 6.17 6.83L6.17 9.16C6.16 9.36 6.22 9.56 6.32 9.74C6.42 9.92 6.57 10.07 6.75 10.17C6.93 10.27 7.13 10.33 7.34 10.33C7.54 10.33 7.74 10.27 7.92 10.17L9.92 9.01C10.09 8.9 10.23 8.76 10.33 8.58C10.43 8.41 10.48 8.21 10.48 8.01C10.48 7.81 10.43 7.61 10.33 7.44C10.23 7.26 10.09 7.11 9.92 7.01L9.92 6.98ZM7.49 8.87L7.49 7.12L9.01 8L7.49 8.87ZM12.66 2.66L3.33 2.66C2.8 2.66 2.29 2.87 1.91 3.25C1.54 3.62 1.33 4.13 1.33 4.66L1.33 11.33C1.33 11.86 1.54 12.37 1.91 12.74C2.29 13.12 2.8 13.33 3.33 13.33L12.66 13.33C13.19 13.33 13.7 13.12 14.08 12.74C14.45 12.37 14.66 11.86 14.66 11.33L14.66 4.66C14.66 4.13 14.45 3.62 14.08 3.25C13.7 2.87 13.19 2.66 12.66 2.66ZM13.33 11.33C13.33 11.51 13.26 11.67 13.13 11.8C13.01 11.92 12.84 12 12.66 12L3.33 12C3.15 12 2.98 11.92 2.86 11.8C2.73 11.67 2.66 11.51 2.66 11.33L2.66 4.66C2.66 4.49 2.73 4.32 2.86 4.19C2.98 4.07 3.15 4 3.33 4L12.66 4C12.84 4 13.01 4.07 13.13 4.19C13.26 4.32 13.33 4.49 13.33 4.66L13.33 11.33Z" fill="#FFFFFF" fill-opacity="1.000000" fill-rule="nonzero"/>
	</g>
</svg>
