<svg width="24.000000" height="24.000000" viewBox="0 0 24 24" fill="none" xmlns="http://www.w3.org/2000/svg" xmlns:xlink="http://www.w3.org/1999/xlink">
	<desc>
			Created with Pixso.
	</desc>
	<defs>
		<clipPath id="clip31_50">
			<rect id="Account-1" rx="0.000000" width="23.000000" height="23.000000" transform="translate(0.500000 0.500000)" fill="white" fill-opacity="0"/>
		</clipPath>
	</defs>
	<rect id="Account-2" rx="0.000000" width="23.000000" height="23.000000" transform="translate(0.500000 0.500000)" fill="#FFFFFF" fill-opacity="0"/>
	<g clip-path="url(#clip31_50)">
		<path id="Vector" d="M12 12C14.21 12 16 10.21 16 8C16 5.79 14.21 4 12 4C9.78 4 8 5.79 8 8C8 10.21 9.78 12 12 12ZM12 6C13.1 6 14 6.89 14 8C14 9.1 13.1 10 12 10C10.9 10 10 9.1 10 8C10 6.89 10.9 6 12 6ZM12 14C9.33 14 4 15.34 4 18L4 20L20 20L20 18C20 15.34 14.67 14 12 14ZM6 18C6.21 17.28 9.31 16 12 16C14.7 16 17.79 17.29 18 18L6 18Z" fill="#FFFFFF" fill-opacity="1.000000" fill-rule="nonzero"/>
	</g>
</svg>
