<svg width="8.328796" height="14.047760" viewBox="0 0 8.3288 14.0478" fill="none" xmlns="http://www.w3.org/2000/svg" xmlns:xlink="http://www.w3.org/1999/xlink">
	<desc>
			Created with Pixso.
	</desc>
	<defs/>
	<path id="Vector" d="M5.1 7.05L0.38 11.77C0.13 12.02 0 12.36 0 12.71C0 13.06 0.13 13.4 0.38 13.65C0.51 13.77 0.65 13.87 0.82 13.94C0.98 14.01 1.15 14.04 1.33 14.04C1.51 14.04 1.68 14.01 1.84 13.94C2 13.87 2.15 13.77 2.28 13.65L7.93 8C8.05 7.87 8.15 7.72 8.22 7.56C8.29 7.4 8.32 7.22 8.32 7.05C8.32 6.87 8.29 6.7 8.22 6.54C8.15 6.37 8.05 6.23 7.93 6.1L2.28 0.38C2.15 0.26 2 0.16 1.84 0.09C1.68 0.03 1.5 -0.01 1.33 3.05e-5C1.15 -0.01 0.98 0.03 0.82 0.09C0.66 0.16 0.51 0.26 0.38 0.38C0.13 0.63 0 0.97 0 1.32C0 1.67 0.13 2.01 0.38 2.26L5.1 7.05Z" fill="#FFFFFF" fill-opacity="1.000000" fill-rule="nonzero"/>
</svg>
