<svg width="10.479794" height="10.489502" viewBox="0 0 10.4798 10.4895" fill="none" xmlns="http://www.w3.org/2000/svg" xmlns:xlink="http://www.w3.org/1999/xlink">
	<desc>
			Created with Pixso.
	</desc>
	<defs/>
	<path id="Vector" d="M10.05 1.78C9.95 1.7 9.83 1.64 9.7 1.61L2.81 0.02C2.68 -0.01 2.55 -0.01 2.42 0.01C2.29 0.03 2.17 0.08 2.05 0.15C1.83 0.29 1.67 0.51 1.61 0.77C1.58 0.9 1.57 1.03 1.6 1.16C1.62 1.29 1.66 1.42 1.73 1.53C1.88 1.76 2.1 1.92 2.36 1.98L6.9 3.02L0.47 7.04C0.24 7.18 0.08 7.41 0.02 7.66C-0.04 7.92 0.01 8.19 0.15 8.42C0.29 8.64 0.51 8.8 0.77 8.86C1.03 8.92 1.3 8.88 1.52 8.74L7.96 4.71L6.91 9.25C6.88 9.38 6.87 9.52 6.89 9.65C6.91 9.78 6.96 9.9 7.03 10.01C7.1 10.12 7.19 10.22 7.3 10.3C7.41 10.37 7.53 10.43 7.66 10.46C7.79 10.49 7.92 10.49 8.05 10.47C8.18 10.45 8.31 10.4 8.42 10.33C8.53 10.26 8.63 10.17 8.7 10.06C8.78 9.96 8.83 9.83 8.86 9.71L10.45 2.82C10.48 2.69 10.48 2.55 10.46 2.42C10.41 2.16 10.27 1.93 10.05 1.78Z" fill="#FFFFFF" fill-opacity="1.000000" fill-rule="nonzero"/>
</svg>
