<svg width="32.000000" height="32.000000" viewBox="0 0 32 32" fill="none" xmlns="http://www.w3.org/2000/svg" xmlns:xlink="http://www.w3.org/1999/xlink">
	<desc>
			Created with Pixso.
	</desc>
	<defs/>
	<rect id="left arrow / 24 / Outline" rx="0.000000" width="31.000000" height="31.000000" transform="translate(0.500000 0.500000)" fill="#FFFFFF" fill-opacity="0"/>
	<path id="Vector" d="M15.05 16L19.77 11.28C20.02 11.03 20.16 10.69 20.16 10.34C20.16 9.98 20.02 9.64 19.77 9.4C19.64 9.27 19.5 9.17 19.33 9.1C19.17 9.04 19 9 18.82 9C18.65 9 18.47 9.04 18.31 9.1C18.15 9.17 18 9.27 17.87 9.4L12.22 15.05C12.1 15.17 12 15.32 11.93 15.48C11.86 15.64 11.83 15.82 11.83 16C11.83 16.17 11.86 16.35 11.93 16.51C12 16.67 12.1 16.82 12.22 16.94L17.87 22.66C18 22.79 18.15 22.88 18.31 22.95C18.47 23.02 18.65 23.05 18.82 23.05C19 23.05 19.17 23.02 19.33 22.95C19.5 22.88 19.64 22.79 19.77 22.66C20.02 22.41 20.16 22.07 20.16 21.72C20.16 21.37 20.02 21.03 19.77 20.78L15.05 16Z" fill="#FFFFFF" fill-opacity="1.000000" fill-rule="nonzero"/>
</svg>
