<svg width="32.000000" height="32.000000" viewBox="0 0 32 32" fill="none" xmlns="http://www.w3.org/2000/svg" xmlns:xlink="http://www.w3.org/1999/xlink">
	<desc>
			Created with Pixso.
	</desc>
	<defs/>
	<rect id="left arrow / 24 / Outline" rx="0.000000" width="31.000000" height="31.000000" transform="translate(32.500000 32.500000) rotate(-179.999985)" fill="#FFFFFF" fill-opacity="0"/>
	<path id="Vector" d="M16.94 16L12.22 20.72C11.97 20.96 11.83 21.3 11.83 21.66C11.83 22.01 11.97 22.35 12.22 22.6C12.35 22.72 12.49 22.82 12.66 22.89C12.82 22.95 12.99 22.99 13.17 22.99C13.34 22.99 13.52 22.95 13.68 22.89C13.84 22.82 13.99 22.72 14.12 22.6L19.77 16.94C19.89 16.82 19.99 16.67 20.06 16.51C20.13 16.35 20.16 16.17 20.16 16C20.16 15.82 20.13 15.64 20.06 15.48C19.99 15.32 19.89 15.17 19.77 15.05L14.12 9.33C13.99 9.2 13.84 9.11 13.68 9.04C13.52 8.97 13.34 8.94 13.17 8.94C12.99 8.94 12.82 8.97 12.66 9.04C12.49 9.11 12.35 9.2 12.22 9.33C11.97 9.58 11.83 9.92 11.83 10.27C11.83 10.62 11.97 10.96 12.22 11.21L16.94 16Z" fill="#FFFFFF" fill-opacity="1.000000" fill-rule="nonzero"/>
</svg>
