<svg width="24.000000" height="24.000000" viewBox="0 0 24 24" fill="none" xmlns="http://www.w3.org/2000/svg" xmlns:xlink="http://www.w3.org/1999/xlink">
	<desc>
			Created with Pixso.
	</desc>
	<defs>
		<clipPath id="clip160_379">
			<rect id="Cube / 24 / Outline" rx="0.000000" width="23.000000" height="23.000000" transform="translate(0.500000 0.500000)" fill="white" fill-opacity="0"/>
		</clipPath>
	</defs>
	<rect id="Cube / 24 / Outline" rx="0.000000" width="23.000000" height="23.000000" transform="translate(0.500000 0.500000)" fill="#FFFFFF" fill-opacity="0"/>
	<g clip-path="url(#clip160_379)">
		<path id="Vector" d="M20.49 7.52C20.48 7.49 20.48 7.46 20.49 7.44C20.48 7.41 20.48 7.39 20.49 7.37L20.49 7.28L20.42 7.13C20.4 7.08 20.37 7.05 20.33 7.02L20.24 6.94L20.2 6.94L16.25 4.45L12.53 2.15C12.45 2.08 12.35 2.03 12.24 2L12.17 2C12.08 1.98 11.98 1.98 11.89 2L11.8 2C11.68 2.02 11.57 2.06 11.46 2.13L3.99 6.78L3.9 6.85L3.81 6.93L3.71 7L3.66 7.06L3.6 7.21L3.6 7.3L3.6 7.36C3.6 7.42 3.6 7.49 3.6 7.56L3.6 16.29C3.6 16.46 3.65 16.62 3.73 16.77C3.81 16.92 3.93 17.05 4.07 17.14L11.58 21.78L11.72 21.84L11.8 21.84C11.97 21.89 12.16 21.89 12.33 21.84L12.4 21.84L12.55 21.78L19.99 17.21C20.14 17.12 20.26 16.99 20.34 16.84C20.42 16.69 20.47 16.53 20.46 16.36L20.46 7.63C20.46 7.63 20.49 7.56 20.49 7.52ZM11.99 4.17L13.77 5.27L8.18 8.73L6.39 7.63L11.99 4.17ZM10.99 19.17L5.49 15.81L5.49 9.42L10.99 12.82L10.99 19.17ZM11.99 11.06L10.08 9.91L15.67 6.44L17.59 7.63L11.99 11.06ZM18.49 15.78L12.99 19.2L12.99 12.82L18.49 9.42L18.49 15.78Z" fill="#FFFFFF" fill-opacity="1.000000" fill-rule="nonzero"/>
	</g>
</svg>
