<svg width="16.887299" height="19.891602" viewBox="0 0 16.8873 19.8916" fill="none" xmlns="http://www.w3.org/2000/svg" xmlns:xlink="http://www.w3.org/1999/xlink">
	<desc>
			Created with Pixso.
	</desc>
	<defs/>
	<path id="Vector" d="M16.88 5.53C16.88 5.5 16.88 5.47 16.88 5.45C16.88 5.42 16.88 5.4 16.88 5.38L16.88 5.29L16.82 5.14C16.8 5.1 16.77 5.06 16.73 5.03L16.64 4.95L16.59 4.95L12.65 2.46L8.93 0.16C8.85 0.09 8.75 0.04 8.64 0.01L8.56 0.01C8.47 -0.01 8.38 -0.01 8.29 0.01L8.19 0.01C8.08 0.03 7.96 0.08 7.86 0.14L0.39 4.79L0.3 4.86L0.21 4.94L0.11 5.01L0.06 5.07L0 5.22L0 5.31L0 5.37C-0.01 5.43 -0.01 5.5 0 5.57L0 14.3C0 14.47 0.04 14.63 0.13 14.78C0.21 14.93 0.33 15.06 0.47 15.15L7.97 19.79L8.12 19.85L8.2 19.85C8.37 19.9 8.55 19.9 8.72 19.85L8.8 19.85L8.95 19.79L16.39 15.22C16.54 15.13 16.66 15 16.74 14.85C16.82 14.7 16.86 14.54 16.86 14.37L16.86 5.64C16.86 5.64 16.88 5.57 16.88 5.53ZM8.39 2.18L10.17 3.28L4.58 6.74L2.79 5.64L8.39 2.18ZM7.39 17.18L1.89 13.82L1.89 7.43L7.39 10.83L7.39 17.18ZM8.39 9.07L6.48 7.92L12.07 4.45L13.99 5.64L8.39 9.07ZM14.89 13.79L9.39 17.21L9.39 10.83L14.89 7.43L14.89 13.79Z" fill="#FFFFFF" fill-opacity="1.000000" fill-rule="nonzero"/>
</svg>
