<svg width="16.000000" height="19.020508" viewBox="0 0 16 19.0205" fill="none" xmlns="http://www.w3.org/2000/svg" xmlns:xlink="http://www.w3.org/1999/xlink">
	<desc>
			Created with Pixso.
	</desc>
	<defs/>
	<path id="Vector" d="M14.3 6.08L15.21 5.18C15.39 5 15.5 4.74 15.5 4.47C15.5 4.21 15.39 3.95 15.21 3.77C15.02 3.58 14.76 3.47 14.5 3.47C14.23 3.47 13.97 3.58 13.79 3.77L12.89 4.68C11.48 3.59 9.76 3 7.99 3C6.22 3 4.5 3.59 3.1 4.68L2.19 3.75C2 3.57 1.74 3.46 1.47 3.46C1.2 3.46 0.95 3.57 0.76 3.76C0.57 3.95 0.47 4.21 0.47 4.47C0.47 4.74 0.58 5 0.77 5.18L1.69 6.1C0.59 7.49 -0.01 9.22 3.05e-5 11C-0.01 12.27 0.29 13.53 0.88 14.66C1.46 15.8 2.3 16.78 3.34 17.52C4.38 18.26 5.57 18.75 6.84 18.93C8.1 19.12 9.39 19 10.59 18.58C11.8 18.17 12.89 17.47 13.77 16.55C14.65 15.63 15.3 14.51 15.67 13.29C16.03 12.06 16.09 10.77 15.85 9.52C15.62 8.27 15.08 7.09 14.3 6.08ZM8 17C6.81 17 5.65 16.64 4.66 15.98C3.67 15.32 2.91 14.39 2.45 13.29C2 12.19 1.88 10.99 2.11 9.82C2.34 8.66 2.91 7.59 3.75 6.75C4.59 5.91 5.66 5.34 6.82 5.11C7.99 4.88 9.19 5 10.29 5.45C11.39 5.91 12.32 6.67 12.98 7.66C13.64 8.65 14 9.81 14 11C14 12.59 13.36 14.11 12.24 15.24C11.11 16.36 9.59 17 8 17ZM6 2L10 2C10.26 2 10.51 1.89 10.7 1.7C10.89 1.51 11 1.26 11 1C11 0.73 10.89 0.48 10.7 0.29C10.51 0.1 10.26 0 10 0L6 0C5.73 0 5.48 0.1 5.29 0.29C5.1 0.48 5 0.73 5 1C5 1.26 5.1 1.51 5.29 1.7C5.48 1.89 5.73 2 6 2ZM9 8C9 7.73 8.89 7.48 8.7 7.29C8.51 7.1 8.26 7 8 7C7.73 7 7.48 7.1 7.29 7.29C7.1 7.48 7 7.73 7 8L7 9.89C6.77 10.09 6.61 10.35 6.54 10.65C6.47 10.94 6.49 11.25 6.59 11.54C6.7 11.82 6.89 12.07 7.14 12.24C7.39 12.41 7.69 12.5 8 12.5C8.3 12.5 8.6 12.41 8.85 12.24C9.1 12.07 9.29 11.82 9.4 11.54C9.5 11.25 9.52 10.94 9.45 10.65C9.38 10.35 9.22 10.09 9 9.89L9 8Z" fill="#FFFFFF" fill-opacity="1.000000" fill-rule="nonzero"/>
</svg>
