<svg width="16.000000" height="16.000000" viewBox="0 0 16 16" fill="none" xmlns="http://www.w3.org/2000/svg" xmlns:xlink="http://www.w3.org/1999/xlink">
	<desc>
			Created with Pixso.
	</desc>
	<defs>
		<clipPath id="clip155_328">
			<rect id="copyright sign,sign,symbol,copyright, / 24 / Outline" rx="0.000000" width="15.000000" height="15.000000" transform="translate(0.500000 0.500000)" fill="white" fill-opacity="0"/>
		</clipPath>
	</defs>
	<rect id="copyright sign,sign,symbol,copyright, / 24 / Outline" rx="0.000000" width="15.000000" height="15.000000" transform="translate(0.500000 0.500000)" fill="#FFFFFF" fill-opacity="0"/>
	<g clip-path="url(#clip155_328)">
		<path id="Vector" d="M7.33 6L8.66 6C8.84 6 9.01 6.07 9.13 6.19C9.26 6.32 9.33 6.48 9.33 6.66C9.33 6.84 9.4 7.01 9.52 7.13C9.65 7.26 9.82 7.33 10 7.33C10.17 7.33 10.34 7.26 10.47 7.13C10.59 7.01 10.66 6.84 10.66 6.66C10.66 6.13 10.45 5.62 10.08 5.25C9.7 4.87 9.19 4.66 8.66 4.66L7.33 4.66C6.8 4.66 6.29 4.87 5.91 5.25C5.54 5.62 5.33 6.13 5.33 6.66L5.33 9.33C5.33 9.86 5.54 10.37 5.91 10.74C6.29 11.12 6.8 11.33 7.33 11.33L8.66 11.33C9.19 11.33 9.7 11.12 10.08 10.74C10.45 10.37 10.66 9.86 10.66 9.33C10.66 9.15 10.59 8.98 10.47 8.86C10.34 8.73 10.17 8.66 10 8.66C9.82 8.66 9.65 8.73 9.52 8.86C9.4 8.98 9.33 9.15 9.33 9.33C9.33 9.5 9.26 9.67 9.13 9.8C9.01 9.92 8.84 10 8.66 10L7.33 10C7.15 10 6.98 9.92 6.86 9.8C6.73 9.67 6.66 9.5 6.66 9.33L6.66 6.66C6.66 6.48 6.73 6.32 6.86 6.19C6.98 6.07 7.15 6 7.33 6ZM8 1.33C6.68 1.33 5.39 1.72 4.29 2.45C3.19 3.18 2.34 4.23 1.84 5.44C1.33 6.66 1.2 8 1.46 9.29C1.71 10.59 2.35 11.78 3.28 12.71C4.21 13.64 5.4 14.28 6.69 14.53C7.99 14.79 9.33 14.66 10.55 14.15C11.76 13.65 12.81 12.79 13.54 11.7C14.27 10.6 14.66 9.31 14.66 8C14.66 7.12 14.49 6.25 14.15 5.44C13.82 4.63 13.33 3.9 12.71 3.28C12.09 2.66 11.36 2.17 10.55 1.84C9.74 1.5 8.87 1.33 8 1.33ZM8 13.33C6.94 13.33 5.91 13.02 5.03 12.43C4.15 11.84 3.47 11.01 3.07 10.04C2.66 9.06 2.56 7.99 2.76 6.95C2.97 5.92 3.48 4.97 4.22 4.22C4.97 3.48 5.92 2.97 6.95 2.76C7.99 2.56 9.06 2.66 10.04 3.07C11.01 3.47 11.84 4.15 12.43 5.03C13.02 5.91 13.33 6.94 13.33 8C13.33 9.41 12.77 10.77 11.77 11.77C10.77 12.77 9.41 13.33 8 13.33Z" fill="#FFFFFF" fill-opacity="1.000000" fill-rule="nonzero"/>
	</g>
</svg>
