<svg width="16.000000" height="16.000000" viewBox="0 0 16 16" fill="none" xmlns="http://www.w3.org/2000/svg" xmlns:xlink="http://www.w3.org/1999/xlink">
	<desc>
			Created with Pixso.
	</desc>
	<defs/>
	<path id="Vector" d="M15 7L9 7L9 1C9 0.73 8.89 0.48 8.7 0.29C8.51 0.1 8.26 0 8 0C7.73 0 7.48 0.1 7.29 0.29C7.1 0.48 7 0.73 7 1L7 7L1 7C0.73 7 0.48 7.1 0.29 7.29C0.1 7.48 0 7.73 0 8C0 8.26 0.1 8.51 0.29 8.7C0.48 8.89 0.73 9 1 9L7 9L7 15C7 15.26 7.1 15.51 7.29 15.7C7.48 15.89 7.73 16 8 16C8.26 16 8.51 15.89 8.7 15.7C8.89 15.51 9 15.26 9 15L9 9L15 9C15.26 9 15.51 8.89 15.7 8.7C15.89 8.51 16 8.26 16 8C16 7.73 15.89 7.48 15.7 7.29C15.51 7.1 15.26 7 15 7Z" fill="#00112C" fill-opacity="1.000000" fill-rule="nonzero"/>
</svg>
