<svg width="16.000011" height="19.993652" viewBox="0 0 16 19.9937" fill="none" xmlns="http://www.w3.org/2000/svg" xmlns:xlink="http://www.w3.org/1999/xlink">
	<desc>
			Created with Pixso.
	</desc>
	<defs/>
	<path id="Vector" d="M15.63 1.64C15.51 1.55 15.37 1.48 15.23 1.45C15.08 1.41 14.93 1.41 14.79 1.44C13.72 1.67 12.61 1.67 11.54 1.45C10.47 1.23 9.46 0.8 8.57 0.17C8.4 0.06 8.2 0 8 0C7.79 0 7.59 0.06 7.43 0.17C6.53 0.8 5.52 1.23 4.45 1.45C3.38 1.67 2.27 1.67 1.21 1.44C1.06 1.41 0.91 1.41 0.76 1.45C0.62 1.48 0.48 1.55 0.37 1.64C0.25 1.74 0.16 1.86 0.09 1.99C0.03 2.13 -0.01 2.27 5.72e-6 2.42L5.72e-6 9.87C-0.01 11.31 0.34 12.72 0.99 14C1.65 15.27 2.6 16.37 3.77 17.2L7.42 19.8C7.58 19.92 7.79 19.99 8 19.99C8.2 19.99 8.41 19.92 8.58 19.8L12.23 17.2C13.39 16.37 14.34 15.27 15 14C15.65 12.72 16 11.31 16 9.87L16 2.42C16 2.27 15.96 2.13 15.9 1.99C15.83 1.86 15.74 1.74 15.63 1.64ZM14 9.87C14 10.99 13.73 12.09 13.22 13.08C12.71 14.07 11.97 14.93 11.07 15.57L8 17.76L4.93 15.57C4.02 14.93 3.28 14.07 2.77 13.08C2.26 12.09 1.99 10.99 2 9.87L2 3.57C4.09 3.75 6.19 3.27 8 2.18C9.8 3.27 11.9 3.75 14 3.57L14 9.87ZM9.54 7.58L6.85 10.28L5.96 9.38C5.77 9.2 5.51 9.09 5.25 9.09C4.98 9.09 4.72 9.2 4.54 9.38C4.35 9.57 4.24 9.83 4.24 10.09C4.24 10.36 4.35 10.62 4.54 10.8L6.14 12.4C6.23 12.5 6.34 12.57 6.46 12.62C6.58 12.67 6.71 12.7 6.85 12.7C6.98 12.7 7.11 12.67 7.23 12.62C7.35 12.57 7.46 12.5 7.56 12.4L11 8.99C11.18 8.81 11.29 8.55 11.29 8.28C11.29 8.02 11.18 7.76 11 7.57C10.81 7.39 10.55 7.28 10.29 7.28C10.02 7.28 9.76 7.39 9.58 7.57L9.54 7.58Z" fill="#FFFFFF" fill-opacity="1.000000" fill-rule="nonzero"/>
</svg>
