<svg width="24.000000" height="24.000000" viewBox="0 0 24 24" fill="none" xmlns="http://www.w3.org/2000/svg" xmlns:xlink="http://www.w3.org/1999/xlink">
	<desc>
			Created with Pixso.
	</desc>
	<defs>
		<clipPath id="clip160_374">
			<rect id="shield,secure,protected,safe,antivirus,protect,shield check, / 24 / Outline" rx="0.000000" width="23.000000" height="23.000000" transform="translate(0.500000 0.500000)" fill="white" fill-opacity="0"/>
		</clipPath>
	</defs>
	<rect id="shield,secure,protected,safe,antivirus,protect,shield check, / 24 / Outline" rx="0.000000" width="23.000000" height="23.000000" transform="translate(0.500000 0.500000)" fill="#FFFFFF" fill-opacity="0"/>
	<g clip-path="url(#clip160_374)">
		<path id="Vector" d="M19.62 3.65C19.51 3.55 19.37 3.48 19.23 3.45C19.08 3.42 18.93 3.41 18.79 3.45C17.72 3.67 16.61 3.67 15.54 3.45C14.47 3.24 13.46 2.8 12.57 2.18C12.4 2.06 12.2 2 12 2C11.79 2 11.59 2.06 11.43 2.18C10.53 2.8 9.52 3.24 8.45 3.45C7.38 3.67 6.27 3.67 5.21 3.45C5.06 3.41 4.91 3.42 4.76 3.45C4.62 3.48 4.48 3.55 4.37 3.65C4.25 3.74 4.16 3.86 4.09 3.99C4.03 4.13 3.99 4.28 4 4.43L4 11.88C3.99 13.31 4.34 14.72 4.99 16C5.65 17.27 6.6 18.37 7.77 19.21L11.42 21.81C11.58 21.93 11.79 21.99 12 21.99C12.2 21.99 12.41 21.93 12.58 21.81L16.23 19.21C17.39 18.37 18.34 17.27 19 16C19.65 14.72 20 13.31 20 11.88L20 4.43C20 4.28 19.96 4.13 19.9 3.99C19.83 3.86 19.74 3.74 19.62 3.65ZM18 11.88C18 12.99 17.73 14.09 17.22 15.08C16.71 16.07 15.97 16.93 15.07 17.58L12 19.77L8.93 17.58C8.02 16.93 7.28 16.07 6.77 15.08C6.26 14.09 5.99 12.99 6 11.88L6 5.58C8.09 5.75 10.19 5.27 12 4.19C13.8 5.27 15.9 5.75 18 5.58L18 11.88ZM13.54 9.59L10.85 12.29L9.96 11.39C9.77 11.2 9.51 11.09 9.25 11.09C8.98 11.09 8.72 11.2 8.54 11.39C8.35 11.57 8.24 11.83 8.24 12.1C8.24 12.36 8.35 12.62 8.54 12.81L10.14 14.41C10.23 14.5 10.34 14.57 10.46 14.62C10.58 14.68 10.71 14.7 10.85 14.7C10.98 14.7 11.11 14.68 11.23 14.62C11.35 14.57 11.46 14.5 11.56 14.41L15 11C15.18 10.81 15.29 10.55 15.29 10.29C15.29 10.02 15.18 9.76 15 9.58C14.81 9.39 14.55 9.28 14.29 9.28C14.02 9.28 13.76 9.39 13.58 9.58L13.54 9.59Z" fill="#FFFFFF" fill-opacity="1.000000" fill-rule="nonzero"/>
	</g>
</svg>
