<svg width="24.000000" height="24.000000" viewBox="0 0 24 24" fill="none" xmlns="http://www.w3.org/2000/svg" xmlns:xlink="http://www.w3.org/1999/xlink">
	<desc>
			Created with Pixso.
	</desc>
	<defs>
		<clipPath id="clip160_353">
			<rect id="shipping truck / 24 / Outline" rx="0.000000" width="23.000000" height="23.000000" transform="translate(0.500000 0.500000)" fill="white" fill-opacity="0"/>
		</clipPath>
	</defs>
	<rect id="shipping truck / 24 / Outline" rx="0.000000" width="23.000000" height="23.000000" transform="translate(0.500000 0.500000)" fill="#FFFFFF" fill-opacity="0"/>
	<g clip-path="url(#clip160_353)">
		<path id="Vector" d="M1 12.5L1 17.5C1 17.76 1.1 18.01 1.29 18.2C1.48 18.39 1.73 18.5 2 18.5L3 18.5C3 19.29 3.31 20.05 3.87 20.62C4.44 21.18 5.2 21.5 6 21.5C6.79 21.5 7.55 21.18 8.12 20.62C8.68 20.05 9 19.29 9 18.5L15 18.5C15 19.29 15.31 20.05 15.87 20.62C16.44 21.18 17.2 21.5 18 21.5C18.79 21.5 19.55 21.18 20.12 20.62C20.68 20.05 21 19.29 21 18.5L22 18.5C22.26 18.5 22.51 18.39 22.7 18.2C22.89 18.01 23 17.76 23 17.5L23 5.5C23 4.7 22.68 3.94 22.12 3.37C21.55 2.81 20.79 2.5 20 2.5L11 2.5C10.2 2.5 9.44 2.81 8.87 3.37C8.31 3.94 8 4.7 8 5.5L8 7.5L6 7.5C5.53 7.5 5.07 7.6 4.65 7.81C4.24 8.02 3.87 8.32 3.59 8.7L1.2 11.89C1.17 11.94 1.14 11.99 1.13 12.04L1.07 12.14C1.02 12.26 1 12.37 1 12.5ZM17 18.5C17 18.3 17.05 18.1 17.16 17.94C17.27 17.77 17.43 17.65 17.61 17.57C17.79 17.5 18 17.48 18.19 17.51C18.38 17.55 18.56 17.65 18.7 17.79C18.84 17.93 18.94 18.11 18.98 18.3C19.01 18.49 18.99 18.7 18.92 18.88C18.84 19.06 18.71 19.22 18.55 19.33C18.39 19.44 18.19 19.5 18 19.5C17.73 19.5 17.48 19.39 17.29 19.2C17.1 19.01 17 18.76 17 18.5ZM10 5.5C10 5.23 10.1 4.98 10.29 4.79C10.48 4.6 10.73 4.5 11 4.5L20 4.5C20.26 4.5 20.51 4.6 20.7 4.79C20.89 4.98 21 5.23 21 5.5L21 16.5L20.21 16.5C19.93 16.19 19.59 15.94 19.21 15.77C18.83 15.6 18.41 15.51 18 15.51C17.58 15.51 17.16 15.6 16.78 15.77C16.4 15.94 16.06 16.19 15.78 16.5L10 16.5L10 5.5ZM8 11.5L4 11.5L5.2 9.89C5.29 9.77 5.41 9.67 5.55 9.6C5.69 9.53 5.84 9.5 6 9.5L8 9.5L8 11.5ZM5 18.5C5 18.3 5.05 18.1 5.16 17.94C5.27 17.77 5.43 17.65 5.61 17.57C5.8 17.5 6 17.48 6.19 17.51C6.38 17.55 6.56 17.65 6.7 17.79C6.84 17.93 6.94 18.11 6.98 18.3C7.01 18.49 6.99 18.7 6.92 18.88C6.84 19.06 6.72 19.22 6.55 19.33C6.39 19.44 6.19 19.5 6 19.5C5.73 19.5 5.48 19.39 5.29 19.2C5.1 19.01 5 18.76 5 18.5ZM3 13.5L8 13.5L8 16.27C7.4 15.75 6.63 15.47 5.84 15.52C5.05 15.56 4.31 15.91 3.78 16.5L3 16.5L3 13.5Z" fill="#FFFFFF" fill-opacity="1.000000" fill-rule="nonzero"/>
	</g>
</svg>
