<svg width="22.000000" height="19.000000" viewBox="0 0 22 19" fill="none" xmlns="http://www.w3.org/2000/svg" xmlns:xlink="http://www.w3.org/1999/xlink">
	<desc>
			Created with Pixso.
	</desc>
	<defs/>
	<path id="Vector" d="M0 10L0 15C0 15.26 0.1 15.51 0.29 15.7C0.48 15.89 0.73 16 1 16L2 16C2 16.79 2.31 17.55 2.87 18.12C3.44 18.68 4.2 19 5 19C5.79 19 6.55 18.68 7.12 18.12C7.68 17.55 8 16.79 8 16L14 16C14 16.79 14.31 17.55 14.87 18.12C15.44 18.68 16.2 19 17 19C17.79 19 18.55 18.68 19.12 18.12C19.68 17.55 20 16.79 20 16L21 16C21.26 16 21.51 15.89 21.7 15.7C21.89 15.51 22 15.26 22 15L22 3C22 2.2 21.68 1.44 21.12 0.87C20.55 0.31 19.79 0 19 0L10 0C9.2 0 8.44 0.31 7.87 0.87C7.31 1.44 7 2.2 7 3L7 5L5 5C4.53 5 4.07 5.1 3.65 5.31C3.24 5.52 2.87 5.82 2.59 6.2L0.2 9.39C0.17 9.44 0.14 9.49 0.13 9.54L0.07 9.64C0.02 9.76 0 9.87 0 10ZM16 16C16 15.8 16.05 15.6 16.16 15.44C16.27 15.27 16.43 15.15 16.61 15.07C16.79 15 17 14.98 17.19 15.01C17.38 15.05 17.56 15.15 17.7 15.29C17.84 15.43 17.94 15.61 17.98 15.8C18.01 15.99 17.99 16.2 17.92 16.38C17.84 16.56 17.71 16.72 17.55 16.83C17.39 16.94 17.19 17 17 17C16.73 17 16.48 16.89 16.29 16.7C16.1 16.51 16 16.26 16 16ZM9 3C9 2.73 9.1 2.48 9.29 2.29C9.48 2.1 9.73 2 10 2L19 2C19.26 2 19.51 2.1 19.7 2.29C19.89 2.48 20 2.73 20 3L20 14L19.21 14C18.93 13.69 18.59 13.44 18.21 13.27C17.83 13.1 17.41 13.01 17 13.01C16.58 13.01 16.16 13.1 15.78 13.27C15.4 13.44 15.06 13.69 14.78 14L9 14L9 3ZM7 9L3 9L4.2 7.39C4.29 7.27 4.41 7.17 4.55 7.1C4.69 7.03 4.84 7 5 7L7 7L7 9ZM4 16C4 15.8 4.05 15.6 4.16 15.44C4.27 15.27 4.43 15.15 4.61 15.07C4.8 15 5 14.98 5.19 15.01C5.38 15.05 5.56 15.15 5.7 15.29C5.84 15.43 5.94 15.61 5.98 15.8C6.01 15.99 5.99 16.2 5.92 16.38C5.84 16.56 5.72 16.72 5.55 16.83C5.39 16.94 5.19 17 5 17C4.73 17 4.48 16.89 4.29 16.7C4.1 16.51 4 16.26 4 16ZM2 11L7 11L7 13.77C6.4 13.25 5.63 12.97 4.84 13.02C4.05 13.06 3.31 13.41 2.78 14L2 14L2 11Z" fill="#FFFFFF" fill-opacity="1.000000" fill-rule="nonzero"/>
</svg>
